Coordinates
version=1
nRows=17
nColumns=40
inDegrees=yes

Units are S.I. units (second, meters, Newtons, ...)
Angles are in degrees.

endheader
time	pelvis_tilt	pelvis_list	pelvis_rotation	pelvis_tx	pelvis_ty	pelvis_tz	hip_flexion_r	hip_adduction_r	hip_rotation_r	knee_angle_r	knee_angle_r_beta	ankle_angle_r	subtalar_angle_r	mtp_angle_r	hip_flexion_l	hip_adduction_l	hip_rotation_l	knee_angle_l	knee_angle_l_beta	ankle_angle_l	subtalar_angle_l	mtp_angle_l	lumbar_extension	lumbar_bending	lumbar_rotation	arm_flex_r	arm_add_r	arm_rot_r	elbow_flex_r	pro_sup_r	wrist_flex_r	wrist_dev_r	arm_flex_l	arm_add_l	arm_rot_l	elbow_flex_l	pro_sup_l	wrist_flex_l	wrist_dev_l
     13.96000000	     -4.95404073	     -3.57706456	      0.44193748	      0.95789592	      0.92996580	      0.42106122	     33.27740749	     -6.63639902	     -6.01977266	     70.49112446	     70.49112446	      4.43642062	    -16.06299291	      2.50986419	     18.41871650	     -4.47688361	     -7.99416571	     22.13021119	     22.13021119	     11.60658196	     -6.90640515	     -2.83397685	    -11.43348172	      2.01935611	      2.29143800	      9.20762577	    -15.66268789	      6.86815127	     96.20178270	     45.15425913	      0.00000000	      0.00000000	      9.95886832	    -11.65992962	     -3.09667313	     43.35909052	     45.60263581	      0.00000000	      0.00000000
     13.97171429	     -4.83475317	     -3.54681525	      0.30248309	      0.95674683	      0.93064449	      0.42047498	     34.30439649	     -6.79046523	     -5.90414339	     69.09186840	     69.09186840	      4.28361897	    -15.63685586	      1.98950711	     17.48655567	     -4.44029600	     -8.30233932	     21.68990270	     21.68990270	     11.95302645	     -6.52828076	     -3.06066140	    -11.62624085	      2.00233441	      2.31589097	      7.72696621	    -15.80586613	      6.40920242	     92.29817168	     45.27878286	      0.00000000	      0.00000000	     11.68321487	    -11.97134105	     -2.96086701	     44.46160115	     45.65753128	      0.00000000	      0.00000000
     13.98342857	     -4.69526538	     -3.51208787	      0.16704900	      0.95563950	      0.93126629	      0.41994000	     35.17254552	     -6.92286073	     -5.80380195	     67.48214547	     67.48214547	      4.02074493	    -15.25215489	      1.45741076	     16.55575941	     -4.42611639	     -8.72149668	     21.29455291	     21.29455291	     12.34080447	     -5.94656931	     -3.33676541	    -11.84364619	      1.95826996	      2.26005372	      6.54466392	    -15.80310767	      5.86502106	     87.94678213	     45.41903626	      0.00000000	      0.00000000	     13.22085513	    -12.39902460	     -2.68612774	     45.96047947	     45.70511563	      0.00000000	      0.00000000
     13.99514286	     -4.53117661	     -3.45493033	      0.04339992	      0.95456896	      0.93185943	      0.41937532	     35.87743216	     -7.06716919	     -5.71838248	     65.64560202	     65.64560202	      3.80830149	    -14.80798851	      1.37781129	     15.58630297	     -4.35527955	     -9.05179745	     20.86342588	     20.86342588	     12.72248323	     -5.45617170	     -3.51124183	    -12.12084126	      1.91624001	      2.48500449	      5.16746593	    -16.19708458	      5.61788379	     84.25131300	     45.53191430	      0.00000000	      0.00000000	     14.90444097	    -12.60048805	     -2.56525223	     47.39384170	     45.74759118	      0.00000000	      0.00000000
     14.00685714	     -4.44242028	     -3.41121021	     -0.05557580	      0.95356617	      0.93221791	      0.41897404	     36.49815892	     -7.19530673	     -5.72108450	     63.54730793	     63.54730793	      3.51936847	    -14.44904718	      1.27016792	     14.74317985	     -4.32711612	     -9.46850732	     20.49536375	     20.49536375	     13.12089094	     -4.84467616	     -3.78411618	    -12.25442797	      1.82277557	      2.23322800	      4.51930129	    -15.85009275	      4.83730885	     79.13220145	     45.70448325	      0.00000000	      0.00000000	     16.24487912	    -13.16568204	     -2.20999233	     48.91547349	     45.78071882	      0.00000000	      0.00000000
     14.01857143	     -4.36271338	     -3.42302249	     -0.12527323	      0.95263043	      0.93256910	      0.41860804	     36.91147427	     -7.26536796	     -5.82942843	     61.07022791	     61.07022791	      3.18244929	    -14.07836974	      1.23480521	     13.88673732	     -4.32777559	     -9.75951816	     20.06354647	     20.06354647	     13.47651436	     -4.34970812	     -3.97942661	    -12.38745197	      1.84125987	      2.01987432	      3.95150878	    -15.73542039	      4.32887003	     74.30182130	     45.85185239	      0.00000000	      0.00000000	     17.43338130	    -13.70346595	     -1.89642749	     50.66485108	     45.83168697	      0.00000000	      0.00000000
     14.03028571	     -4.28922829	     -3.39960041	     -0.18349703	      0.95178504	      0.93278247	      0.41830294	     37.16344573	     -7.36635481	     -5.99457251	     58.28394284	     58.28394284	      2.80106529	    -13.72458740	      1.22682094	     13.03381631	     -4.27741797	    -10.00183427	     19.62594786	     19.62594786	     13.81987565	     -3.92413338	     -4.20719644	    -12.52193446	      1.81661288	      1.88627601	      3.33022199	    -15.76499728	      3.95065621	     69.70896585	     45.97887515	      0.00000000	      0.00000000	     18.57777838	    -14.16284261	     -1.72176052	     52.48225387	     45.90587813	      0.00000000	      0.00000000
     14.04200000	     -4.22929825	     -3.38150796	     -0.24002444	      0.95106122	      0.93289074	      0.41806462	     37.24059428	     -7.44712353	     -6.24567494	     55.16464216	     55.16464216	      2.51302792	    -13.25204633	      1.53114080	     12.15798585	     -4.21194645	    -10.17731954	     19.12125637	     19.12125637	     14.15366152	     -3.59829578	     -4.35284288	    -12.69063045	      1.84039986	      2.26107732	      1.94478564	    -16.40555359	      3.87033098	     66.84266689	     46.05870996	      0.00000000	      0.00000000	     20.04099709	    -14.13749543	     -1.75561683	     53.95615196	     45.95554463	      0.00000000	      0.00000000
     14.05371429	     -4.28990799	     -3.31603342	     -0.27047884	      0.95042065	      0.93276388	      0.41797443	     37.23358875	     -7.55680000	     -6.59430720	     51.65228123	     51.65228123	      1.88571058	    -12.85251005	      1.08150290	     11.41214597	     -4.11379312	    -10.40108135	     18.61321100	     18.61321100	     14.37819542	     -3.17173066	     -4.84093656	    -12.60374621	      1.75053918	      1.81694864	      2.01582106	    -15.90878498	      2.91143207	     60.67772878	     46.25147954	      0.00000000	      0.00000000	     20.71374984	    -14.87480773	     -1.46734180	     56.10465939	     46.03012136	      0.00000000	      0.00000000
     14.06542857	     -4.33724392	     -3.24713283	     -0.30275112	      0.94997299	      0.93256234	      0.41793792	     36.99060268	     -7.64060404	     -7.06667371	     47.79827929	     47.79827929	      1.29902290	    -12.25803175	      0.63241989	     10.59374793	     -3.98456931	    -10.54031666	     18.01376239	     18.01376239	     14.57325797	     -2.88325790	     -5.27976868	    -12.58034954	      1.69348103	      1.76687993	      1.41418998	    -16.03326429	      2.50598991	     56.21838320	     46.35984225	      0.00000000	      0.00000000	     21.50641259	    -15.21515514	     -1.48282854	     58.24170666	     46.13412844	      0.00000000	      0.00000000
     14.07714286	     -4.37942053	     -3.21715101	     -0.32767348	      0.94971332	      0.93229044	      0.41797200	     36.53348707	     -7.64623335	     -7.69531661	     43.67930241	     43.67930241	      1.02118769	    -11.27810579	      1.04856299	      9.75403874	     -3.89265085	    -10.63048097	     17.41957946	     17.41957946	     14.88015348	     -2.59923594	     -5.44550841	    -12.57865189	      1.75204977	      2.12531390	     -0.14341859	    -16.73283617	      2.48956528	     54.12149567	     46.41267387	      0.00000000	      0.00000000	     22.60837915	    -15.06818610	     -1.57512988	     59.67617673	     46.18220514	      0.00000000	      0.00000000
     14.08885714	     -4.47702351	     -3.06044118	     -0.37480318	      0.94965943	      0.93179849	      0.41822951	     35.94109332	     -7.68953271	     -8.37550816	     39.29413263	     39.29413263	      0.39631994	    -10.18535034	      0.27359010	      8.87213546	     -3.66726468	    -10.81203403	     16.63995456	     16.63995456	     14.88054409	     -2.31911455	     -6.29507978	    -12.43872680	      1.54967745	      1.86025155	     -0.01047549	    -16.34114779	      1.50628966	     48.00415503	     46.60581421	      0.00000000	      0.00000000	     22.90835632	    -15.75343461	     -1.39289211	     62.42667128	     46.28110059	      0.00000000	      0.00000000
     14.10057143	     -4.55298487	     -2.88862090	     -0.42761357	      0.94989288	      0.93118580	      0.41852505	     35.18735309	     -7.69903660	     -9.20248410	     34.87862480	     34.87862480	      0.20289350	     -8.50861762	      0.55647334	      7.91716974	     -3.41312336	    -10.97822393	     15.82191337	     15.82191337	     15.04639710	     -1.97767626	     -6.68298989	    -12.34316357	      1.40457834	      2.23117919	     -1.35026859	    -16.75916736	      1.31099471	     45.24408570	     46.66938966	      0.00000000	      0.00000000	     23.64533649	    -15.64251207	     -1.56653622	     64.45475984	     46.36736192	      0.00000000	      0.00000000
     14.11228571	     -4.58322251	     -2.76951569	     -0.44611578	      0.95039092	      0.93046904	      0.41901938	     34.21250157	     -7.56727992	    -10.18040081	     30.42806288	     30.42806288	      0.14636883	     -6.56721534	      1.24082320	      6.90919524	     -3.21923621	    -11.03142813	     15.00512383	     15.00512383	     15.03807953	     -1.82174091	     -7.58809603	    -12.24044661	      1.29894894	      2.00056152	     -1.64291754	    -16.65430500	      0.55587292	     40.96106441	     46.78197432	      0.00000000	      0.00000000	     23.69993878	    -16.15598170	     -1.70487307	     67.09579659	     46.50020972	      0.00000000	      0.00000000
     14.12400000	     -4.54907245	     -2.60244380	     -0.48449974	      0.95117935	      0.92961321	      0.41969337	     33.13008855	     -7.39703990	    -11.20958720	     26.21629832	     26.21629832	      0.25315357	     -4.33085109	      2.28594875	      5.82287125	     -3.00118516	    -11.19800719	     14.25066750	     14.25066750	     15.32500982	     -1.41157674	     -7.89258928	    -12.21377815	      1.15492105	      2.44785624	     -3.21915459	    -17.04516727	      0.46863705	     39.20595648	     46.81974514	      0.00000000	      0.00000000	     24.37662600	    -15.98332376	     -1.83606010	     68.82799224	     46.56322636	      0.00000000	      0.00000000
     14.13571429	     -4.62349493	     -2.48489548	     -0.48483324	      0.95216434	      0.92838903	      0.42058043	     32.12238586	     -7.06917124	    -12.19610766	     22.27639163	     22.27639163	      0.29191115	     -2.31060370	      3.45792646	      4.91822907	     -2.86326327	    -11.28389539	     13.63625495	     13.63625495	     15.65879892	     -1.08025683	     -8.19611264	    -11.94148086	      1.08568714	      2.65261746	     -4.67926905	    -17.30583492	      0.38295613	     37.79729590	     46.85672261	      0.00000000	      0.00000000	     24.79032848	    -15.97708261	     -1.88075938	     70.27844387	     46.60361459	      0.00000000	      0.00000000
     14.14742857	     -4.54639215	     -2.23764248	     -0.51156478	      0.95341649	      0.92719960	      0.42156999	     31.29675525	     -7.00044036	    -13.52150639	     19.52204179	     19.52204179	      1.88457983	      0.73337257	      8.22173710	      3.65026199	     -2.53136155	    -11.31971359	     12.62119310	     12.62119310	     15.46193846	     -0.96714267	     -9.44221086	    -11.93694583	      0.77242131	      2.20232721	     -4.56234249	    -16.89916033	     -0.95334307	     33.44946400	     47.00456051	      0.00000000	      0.00000000	     23.99154083	    -16.74691321	     -2.20675718	     74.21512422	     46.79350271	      0.00000000	      0.00000000
